<svg xmlns="http://www.w3.org/2000/svg" viewBox="214 683 1621 522">
<g transform="translate(0,2000) scale(0.1,-0.1)">
<path d="M9285 12763 c-1269 -26 -3006 -201 -4550 -459 -734 -122 -1833 -338
-1860 -365 -7 -7 -4 -21 9 -42 113 -195 158 -292 187 -401 25 -91 41 -259 37
-376 l-3 -95 -90 -28 c-316 -100 -375 -120 -371 -124 4 -5 1562 215 1586 224
17 6 -316 78 -426 92 -90 11 -132 34 -162 88 -46 83 -223 507 -220 527 3 19 9
21 63 18 144 -6 1337 -72 1405 -77 122 -9 61 12 -132 46 -255 43 -590 108
-613 118 -17 7 -15 9 15 15 19 3 177 19 350 36 791 74 928 82 1835 100 1913
38 3412 -27 4996 -216 46 -5 57 -4 62 10 8 21 -19 46 -51 46 -15 0 -180 20
-367 44 -1016 133 -1990 233 -3119 321 -175 13 -321 27 -324 30 -3 3 -2 8 1
12 9 8 194 44 452 87 1793 300 3557 251 5229 -144 157 -37 221 -49 229 -41 19
19 -4 30 -174 87 -737 247 -1551 394 -2459 444 -445 24 -1037 33 -1535 23z
M13350 12030 c-150 -15 -250 -32 -250 -41 0 -17 56 -22 194 -15 169 7 637 -8
866 -29 594 -55 1134 -163 1733 -347 230 -70 225 -78 -47 -78 -141 0 -217 -4
-221 -11 -4 -6 -5 -13 -2 -15 8 -9 268 -81 347 -98 41 -8 154 -22 250 -31 347
-31 480 -55 655 -117 168 -60 535 -257 535 -287 0 -13 -112 -46 -253 -76 -60
-13 -111 -26 -114 -29 -4 -3 86 -6 199 -6 112 0 320 -3 461 -7 188 -4 257 -3
257 5 0 13 -127 89 -340 205 -1056 571 -2226 893 -3515 966 -257 15 -659 21
-755 11z M6488 11813 c-49 -2 -88 -8 -88 -12 0 -14 128 -131 210 -192 347
-260 694 -367 1505 -463 165 -20 319 -39 343 -42 34 -5 42 -3 42 9 0 10 -14
20 -37 26 -21 6 -238 60 -482 121 -439 110 -540 140 -610 182 -81 48 -204 189
-183 210 20 20 186 23 877 16 969 -10 1720 -25 2110 -43 182 -8 582 -26 890
-40 792 -36 907 -42 1202 -70 276 -26 310 -28 301 -19 -8 7 -762 107 -1007
134 -353 38 -979 86 -1546 119 -327 19 -537 29 -1080 52 -241 10 -2269 20
-2447 12z M5290 11469 c-263 -16 -505 -116 -713 -297 -72 -62 -181 -181 -173
-189 2 -3 35 21 72 52 337 286 758 385 1127 264 169 -55 287 -130 464 -295 57
-53 122 -112 145 -130 l40 -34 118 0 c73 0 121 4 125 11 11 16 -96 148 -198
246 -280 267 -625 394 -1007 372z M14729 11420 c-209 -25 -412 -108 -587 -240
-74 -56 -194 -170 -179 -170 4 0 40 24 80 53 151 112 283 176 444 218 72 19
113 23 228 23 171 -1 282 -27 440 -103 179 -85 244 -134 387 -288 l67 -73 125
0 c101 0 126 3 126 14 0 8 -21 42 -47 77 -263 350 -676 536 -1084 489z M6428
9823 c7 -3 16 -2 19 1 4 3 -2 6 -13 5 -11 0 -14 -3 -6 -6z M17173 9563 c9 -2
25 -2 35 0 9 3 1 5 -18 5 -19 0 -27 -2 -17 -5z M3389 8493 c-13 -16 -12 -17 4
-4 16 13 21 21 13 21 -2 0 -10 -8 -17 -17z M4528 8343 c12 -2 30 -2 40 0 9 3
-1 5 -23 4 -22 0 -30 -2 -17 -4z" fill="#4a4a4a"/>
<path d="M10350 10523 c-2076 -5 -5308 -37 -5405 -53 -32 -5 -65 -16 -73 -24
-16 -16 -74 -13 908 -46 316 -11 769 -25 1005 -30 561 -13 4505 -13 5515 0
1451 18 3313 60 3328 75 16 15 -37 20 -341 27 -183 4 -453 12 -602 17 -608 23
-2611 39 -4335 34z" fill="#a32530"/>
<path d="M17139 9840 c-401 -50 -727 -356 -788 -740 -51 -312 55 -546 299
-663 130 -62 214 -80 380 -79 140 0 237 14 355 54 93 30 206 89 216 112 5 12
34 144 64 295 43 212 52 277 42 283 -15 10 -258 10 -273 0 -7 -4 -28 -90 -48
-192 -20 -102 -41 -195 -46 -207 -22 -53 -248 -92 -371 -63 -71 17 -160 62
-209 106 -50 46 -99 144 -107 215 -19 185 155 467 346 563 153 77 347 52 548
-68 44 -27 80 -43 88 -38 36 21 185 149 190 165 11 30 -3 51 -64 94 -78 57
-209 119 -302 142 -91 23 -230 32 -320 21z M4605 9826 c-427 -67 -718 -407
-718 -841 -1 -319 146 -523 438 -607 69 -20 101 -23 230 -22 187 1 296 27 460
109 130 65 180 103 171 131 -3 11 -43 57 -89 102 l-84 84 -63 -41 c-164 -106
-379 -138 -534 -80 -82 30 -156 104 -186 184 -19 52 -21 73 -17 165 6 123 29
199 88 291 106 163 272 260 444 260 123 0 209 -34 310 -121 26 -22 50 -40 54
-40 12 0 214 174 219 188 7 24 -118 136 -189 170 -151 72 -346 97 -534 68z
M2940 9798 c-16 -40 -52 -227 -45 -238 4 -6 91 -10 246 -10 l239 0 0 -23 c0
-83 -53 -398 -96 -572 -53 -214 -85 -275 -166 -316 -88 -45 -232 -12 -314 72
-21 21 -43 39 -49 39 -12 0 -194 -164 -208 -187 -12 -20 8 -48 73 -96 118 -89
231 -127 375 -127 161 0 287 51 395 161 111 111 149 210 249 644 45 192 108
524 118 618 l6 57 -407 0 -406 0 -10 -22z M6250 9810 c-20 -13 -304 -1421
-288 -1431 21 -13 222 -24 433 -23 503 3 717 66 925 274 107 107 149 172 191
292 53 156 58 327 13 479 -66 224 -249 359 -549 404 -114 17 -699 21 -725 5z
m655 -275 c230 -48 305 -144 305 -389 -1 -289 -150 -442 -477 -491 -132 -20
-382 -20 -389 -1 -7 18 160 854 173 867 29 29 270 38 388 14z M7965 9808 c-15
-45 -285 -1430 -280 -1438 7 -12 1094 -14 1111 -2 11 8 55 242 47 255 -2 4
-177 7 -388 7 -211 0 -386 3 -388 8 -3 4 8 79 24 167 16 88 29 161 29 163 0 1
153 2 340 2 l340 0 9 23 c13 36 34 204 28 221 -6 14 -45 16 -326 16 -176 0
-322 4 -325 9 -5 7 21 155 50 289 l4 22 380 0 380 0 9 23 c15 39 43 217 37
232 -5 13 -78 15 -541 15 -420 0 -537 -3 -540 -12z M9203 9808 c-17 -27 -51
-233 -41 -245 8 -10 65 -13 223 -13 161 0 214 -3 218 -12 2 -7 -46 -269 -108
-583 -77 -391 -109 -574 -102 -582 13 -18 303 -18 313 -1 4 7 60 273 124 593
l116 580 227 3 c225 2 228 3 237 25 17 42 52 216 46 232 -5 13 -79 15 -625 15
-485 0 -622 -3 -628 -12z M11102 9793 c-75 -106 -905 -1401 -906 -1413 -1 -13
24 -15 159 -17 88 -2 165 0 171 5 5 4 50 73 99 155 l89 147 346 -2 345 -3 18
-80 c10 -44 26 -111 35 -150 l17 -70 154 -3 c85 -1 158 1 162 5 6 7 -324 1383
-344 1437 -5 14 -30 16 -166 16 l-160 0 -19 -27z m184 -573 c29 -135 53 -255
54 -267 l0 -23 -225 0 c-190 0 -225 2 -225 15 0 11 204 357 297 503 33 53 44
28 99 -228z M12263 9808 c-13 -17 -294 -1428 -287 -1439 3 -5 75 -9 160 -9
151 0 155 0 163 23 18 50 283 1407 278 1421 -5 14 -29 16 -155 16 -108 0 -152
-3 -159 -12z M12940 9798 c-15 -34 -290 -1419 -284 -1429 3 -5 239 -9 525 -9
l519 0 10 23 c14 35 51 228 44 238 -3 5 -162 9 -360 9 l-354 0 0 24 c0 13 51
277 114 587 63 310 112 567 110 571 -3 4 -75 8 -160 8 -151 0 -155 -1 -164
-22z M14195 9808 c-13 -38 -284 -1432 -279 -1439 3 -5 75 -9 160 -9 151 0 155
0 163 23 18 50 283 1407 278 1421 -5 14 -30 16 -162 16 -116 0 -157 -3 -160
-12z M14885 9808 c-14 -43 -286 -1430 -282 -1435 3 -3 76 -8 160 -11 146 -4
155 -4 161 14 3 10 42 201 86 424 82 413 93 454 110 448 6 -2 129 -201 273
-443 l262 -440 135 0 135 0 143 714 c78 393 140 721 138 728 -4 10 -41 13
-155 13 -82 0 -152 -4 -155 -9 -3 -5 -45 -200 -92 -433 -47 -232 -92 -429 -99
-437 -16 -17 13 -62 -294 454 l-249 420 -136 3 c-104 2 -137 0 -141 -10z" fill="#1a1a1a"/>
</g>
</svg>
