<?xml version="1.0" encoding="utf-8"?>
<!-- Generator: Adobe Illustrator 27.6.1, SVG Export Plug-In . SVG Version: 6.00 Build 0)  -->
<svg version="1.1" id="Layer_1" xmlns="http://www.w3.org/2000/svg" xmlns:xlink="http://www.w3.org/1999/xlink" x="0px" y="0px"
	 viewBox="0 0 566.9 566.9" style="enable-background:new 0 0 566.9 566.9;" xml:space="preserve">
<style type="text/css">
	.st0{fill:#FFFFFF;}
</style>
<polygon class="st0" points="308.1,274.5 294.3,241.7 282.1,241.7 282.1,325.2 296.7,325.2 296.7,278.9 315,325.2 329.1,325.2 
	329.1,325.2 "/>
<polygon class="st0" points="329.1,299.1 329.1,241.7 312.6,241.7 312.6,259.4 "/>
<g>
	<path class="st0" d="M109.3,284.6l4.4,12.1h4.8v4.4c0,8.5-2.6,12.8-7.7,12.8c-5.2,0-7.7-4.1-7.7-12.3v-36c0-8.2,2.6-12.3,7.7-12.3
		c1.4,0,2.5,0.3,3.5,0.9c1,0.6,1.7,1.3,2.3,2.2c0.5,0.9,0.9,2,1.3,3.3c0.3,1.3,0.5,2.6,0.6,3.7c0.1,1.1,0.1,2.4,0.1,3.8v7h16.1v-6.1
		c0-3.3-0.3-6.3-0.8-9.1c-0.5-2.8-1.4-5.3-2.6-7.7c-1.2-2.4-2.7-4.3-4.5-5.9c-1.8-1.6-4.1-2.9-6.8-3.8c-2.7-0.9-5.8-1.4-9.3-1.4
		c-16.4,0-24.6,9.9-24.6,29.6v29.4c0,2.7,0.2,5.3,0.7,7.9c0.5,2.6,1.2,5,2.3,7.5c1.1,2.4,2.4,4.6,4,6.4c1.6,1.8,3.6,3.3,6.1,4.4
		c2.5,1.1,5.2,1.6,8.2,1.6c2.8,0,5.5-0.7,8.1-2.1c2.6-1.4,4.7-3.2,6.1-5.4l2.1,5.8h10.9v-40.6H109.3z"/>
	<polygon class="st0" points="220.5,313 203.3,313 203.3,287.9 212.2,287.9 215.6,276 203.3,276 203.3,253.9 217,253.9 220.4,241.7 
		195.3,241.7 186.4,273.4 186.4,325.2 217,325.2 	"/>
	<path class="st0" d="M342.1,244.9c0-0.5-0.3-0.9-1-0.9h-1.3c-0.1,0-0.1,0-0.1,0.1v1.6c0,0.1,0,0.1,0.1,0.1h1.3
		C341.8,245.7,342.1,245.4,342.1,244.9 M339.1,248.8c-0.2,0-0.2-0.1-0.2-0.2v-5.1c0-0.2,0.1-0.2,0.2-0.2h2c1.1,0,1.7,0.6,1.7,1.6
		c0,0.7-0.4,1.3-1.1,1.5l1.1,2.1c0.1,0.2,0,0.3-0.2,0.3h-0.4c-0.1,0-0.2-0.1-0.3-0.2l-1.1-2.1h-1.1c-0.1,0-0.1,0-0.1,0.1v2
		c0,0.2-0.1,0.2-0.2,0.2H339.1z M344.9,246c0-2.4-1.8-4.2-4.1-4.2c-2.4,0-4.2,1.8-4.2,4.2c0,2.4,1.8,4.2,4.2,4.2
		C343.1,250.2,344.9,248.5,344.9,246 M335.8,246c0-2.8,2.1-4.9,4.9-4.9c2.8,0,4.9,2.1,4.9,4.9c0,2.8-2.1,4.9-4.9,4.9
		C338,251,335.8,248.9,335.8,246"/>
	<path class="st0" d="M152.3,325.2v-27.6l-15.7-55.9h15.9l7.8,36.7c1-4,2.4-10.1,4.3-18.4c1.9-8.2,3.3-14.3,4.3-18.3h15.4
		l-15.7,55.9v27.6H152.3z"/>
	<path class="st0" d="M256.4,301.6v-36.1c0-8.2-2.5-12.3-7.6-12.3c-1.5,0-2.8,0.4-3.8,1.1c-1.1,0.8-1.8,1.8-2.3,3.1
		c-0.5,1.3-0.8,2.6-1,3.9c-0.2,1.3-0.3,2.7-0.3,4.2v36.1c0,8.2,2.5,12.3,7.5,12.3C253.9,313.9,256.4,309.8,256.4,301.6 M224.4,297.8
		v-28.1c0-19.7,8.1-29.6,24.4-29.6c16.3,0,24.5,9.9,24.5,29.6v27.6c0,3.3-0.2,6.4-0.7,9.3c-0.5,2.8-1.3,5.5-2.5,8.1
		c-1.2,2.5-2.7,4.7-4.5,6.5c-1.8,1.8-4.2,3.2-7,4.2c-2.8,1-6,1.5-9.7,1.5c-3.6,0-6.8-0.5-9.6-1.5c-2.8-1-5.1-2.4-7-4.1
		c-1.8-1.7-3.3-3.8-4.5-6.3c-1.2-2.5-2-5.1-2.6-8C224.7,304.2,224.4,301.1,224.4,297.8"/>
	<path class="st0" d="M363.7,271v3c0,6.5-3.6,10-10,10h-3v13.9h-7.1v-36.2h9.9C360.2,261.7,363.6,264.9,363.7,271 M356.4,271.2
		c0-3.3-1.1-4.6-3.6-4.6h-2.1V279h2.1c2.5,0,3.6-1.5,3.6-5.2V271.2z"/>
	<path class="st0" d="M378.1,283.2h-2.5v14.7h-7.1v-36.2h9.6c7.5,0,10.5,3.6,10.6,9.7v1.7c0,4.3-1.6,7-4.3,8.4l5.1,16.4h-7.4
		L378.1,283.2z M377.7,278.6c2.8,0,3.7-1.6,3.7-5.1v-2.3c0-3.3-1-4.6-3.7-4.6h-2.1v12H377.7z"/>
	<rect x="394.4" y="261.7" class="st0" width="7.1" height="36.2"/>
	<path class="st0" d="M408.5,261.7h9.5l3.1,18.8c0.3,1.9,0.6,3.9,0.6,5.3h0.2c0-1.4,0.3-3.4,0.6-5.3l3-18.8h9.5v36.2h-6.1v-18.2
		c0-2.9,0-6.9,0.2-9.8h-0.2c-0.2,1.7-0.4,3.1-0.7,5.4l-3.8,22.7h-5.1l-3.9-22.7c-0.3-2.3-0.6-4.3-0.7-5.4h-0.3
		c0.2,2.9,0.2,6.9,0.2,9.8v18.2h-6V261.7z"/>
	<polygon class="st0" points="458.8,292.4 458.8,297.9 441.9,297.9 441.9,261.7 458.5,261.7 458.5,267.2 449,267.2 449,276.5 
		457.8,276.5 457.8,282 449,282 449,292.4 	"/>
	<path class="st0" d="M340.9,320.7l3.9-2.7c1.6,2.2,4.5,3.8,8.5,3.8c3.5,0,5.1-0.7,5.1-2.2c0-1.2-0.8-1.7-3.1-1.9l-5.9-0.6
		c-4.7-0.5-6.9-2.2-6.9-5.8c0-3.8,3.7-6,10.3-6c4.9,0,8.6,1.3,11,3.9l-3.4,2.9c-1.4-1.9-4.2-3.1-7.9-3.1c-3,0-4.6,0.7-4.6,2
		c0,1.2,0.8,1.6,3.3,1.9l5.3,0.5c5.3,0.5,7.5,2.1,7.5,5.7c0,4.2-4,6.6-10.9,6.6C347.3,325.6,342.9,323.7,340.9,320.7"/>
	<polygon class="st0" points="387.1,310 379.1,310 379.1,324.9 373.6,324.9 373.6,310 365.6,310 365.6,305.7 387.1,305.7 	"/>
	<path class="st0" d="M395.8,305.7v10c0,3.2,2.1,5.5,5.8,5.5c3.7,0,5.8-2.3,5.8-5.5v-10h5.5v10.6c0,5.5-4,9.2-11.3,9.2
		c-7.3,0-11.3-3.8-11.3-9.3v-10.5H395.8z"/>
	<path class="st0" d="M418,305.7h12.2c7,0,11.6,3.3,11.6,9.3c0,6-4.8,9.9-11.6,9.9H418V305.7z M429.4,321.2c4.1,0,6.6-2.3,6.6-6.1
		c0-3.7-2.7-5.6-6.7-5.6h-5.9v11.8H429.4z"/>
	<rect x="445.7" y="305.7" class="st0" width="5.5" height="19.2"/>
	<path class="st0" d="M455.1,315.3c0-6.2,5-10.2,12.8-10.2c7.8,0,12.8,4,12.8,10.2c0,6.2-5.1,10.2-12.8,10.2
		C460.2,325.6,455.1,321.5,455.1,315.3 M475.1,315.3c0-3.7-2.9-6.2-7.1-6.2c-4.3,0-7.1,2.5-7.1,6.2c0,3.7,2.9,6.2,7.1,6.2
		C472.2,321.5,475.1,319,475.1,315.3"/>
</g>
</svg>
