<?xml version="1.0" encoding="utf-8"?>
<!-- Generator: Adobe Illustrator 27.6.1, SVG Export Plug-In . SVG Version: 6.00 Build 0)  -->
<svg version="1.1" id="Layer_1" xmlns="http://www.w3.org/2000/svg" xmlns:xlink="http://www.w3.org/1999/xlink" x="0px" y="0px"
	 viewBox="106 180 650 230" style="enable-background:new 0 0 841.9 595.3;" xml:space="preserve">
<style type="text/css">
	.st0{fill:#FFFFFF;}
</style>
<g>
	<g>
		<polygon class="st0" points="654.1,274 620.8,194.5 591.3,194.5 591.3,396.7 626.5,396.7 626.5,284.5 670.7,396.7 705,396.7 
			705,396.6 		"/>
		<polygon class="st0" points="705,333.4 705,194.5 665.1,194.5 665.1,237.3 		"/>
	</g>
	<path class="st0" d="M172.9,298.3l10.6,29.3h11.6v10.6c0,20.6-6.2,30.9-18.6,30.9c-12.5,0-18.8-9.9-18.8-29.8v-87.3
		c0-19.9,6.3-29.9,18.8-29.9c3.3,0,6.1,0.7,8.5,2.1c2.4,1.4,4.2,3.2,5.5,5.3c1.3,2.1,2.3,4.8,3,8c0.7,3.3,1.2,6.2,1.4,8.9
		c0.2,2.7,0.3,5.8,0.3,9.3v16.9h39.1V258c0-8-0.6-15.4-1.9-22c-1.3-6.7-3.3-12.8-6.2-18.5c-2.8-5.7-6.5-10.5-10.9-14.4
		c-4.4-3.9-9.9-6.9-16.4-9.2c-6.6-2.2-14-3.3-22.4-3.3c-39.7,0-59.6,23.9-59.6,71.6v71.2c0,6.5,0.6,12.9,1.7,19
		c1.1,6.2,3,12.2,5.6,18.1c2.6,5.9,5.9,11.1,9.7,15.4c3.9,4.4,8.8,7.9,14.7,10.6c5.9,2.7,12.6,4,19.8,4c6.7,0,13.3-1.7,19.7-5
		c6.4-3.3,11.3-7.7,14.7-13.1l5.2,14.1h26.4v-98.4H172.9z"/>
	<polygon class="st0" points="442,367.2 400.4,367.2 400.4,306.4 422.1,306.4 430.1,277.7 400.4,277.7 400.4,224.1 433.6,224.1 
		441.9,194.6 381.1,194.6 359.5,271.3 359.5,396.7 433.7,396.7 	"/>
	<g>
		<path class="st0" d="M721.3,205.1c0-6.8,5.1-11.9,11.9-11.9c6.7,0,11.9,5.1,11.9,11.9c0,6.8-5.1,11.9-11.9,11.9
			C726.4,217,721.3,211.9,721.3,205.1 M743.2,205.1c0-5.8-4.3-10.1-10-10.1c-5.8,0-10.1,4.3-10.1,10.1c0,5.9,4.3,10.2,10.1,10.2
			C738.9,215.2,743.2,210.9,743.2,205.1 M729.2,211.7c-0.4,0-0.6-0.2-0.6-0.6v-12.3c0-0.4,0.2-0.6,0.6-0.6h4.9
			c2.7,0,4.2,1.5,4.2,3.9c0,1.8-0.9,3.2-2.6,3.7l2.6,5.2c0.2,0.4,0,0.6-0.4,0.6h-1.1c-0.3,0-0.5-0.2-0.6-0.4l-2.6-5.1h-2.8
			c-0.1,0-0.2,0.1-0.2,0.1v4.9c0,0.4-0.2,0.6-0.6,0.6H729.2z M736.4,202.2c0-1.3-0.7-2.1-2.4-2.1h-3.2c-0.1,0-0.2,0.1-0.2,0.1v3.9
			c0,0.1,0.1,0.1,0.2,0.1h3.2C735.7,204.2,736.4,203.5,736.4,202.2"/>
	</g>
	<path class="st0" d="M277.1,396.7v-66.8l-38-135.3h38.5l18.9,88.8c2.3-9.7,5.8-24.5,10.4-44.4c4.6-19.9,8.1-34.7,10.3-44.4h37.4
		l-38.1,135.3v66.8H277.1z"/>
	<path class="st0" d="M451.6,330.2v-67.9c0-47.8,19.7-71.7,59.1-71.7c39.5,0,59.2,23.9,59.2,71.7v66.9c0,8.1-0.6,15.6-1.8,22.4
		c-1.2,6.9-3.2,13.3-6.1,19.5c-2.9,6.1-6.6,11.4-11,15.7c-4.5,4.3-10.1,7.7-16.9,10.2c-6.8,2.5-14.6,3.7-23.4,3.7
		c-8.7,0-16.4-1.2-23.2-3.7c-6.8-2.4-12.4-5.7-16.8-9.9c-4.4-4.2-8.1-9.2-11-15.3c-2.9-6-4.9-12.4-6.2-19.3
		C452.2,345.8,451.6,338.3,451.6,330.2 M529,339.4v-87.4c0-19.9-6.1-29.9-18.3-29.9c-3.7,0-6.8,0.9-9.3,2.8
		c-2.6,1.8-4.4,4.3-5.6,7.5c-1.2,3.2-2,6.3-2.5,9.4c-0.5,3.1-0.7,6.5-0.7,10.2v87.4c0,19.8,6.1,29.8,18.2,29.8
		C522.9,369.2,529,359.3,529,339.4"/>
</g>
</svg>
